<svg xmlns="http://www.w3.org/2000/svg" xmlns:xlink="http://www.w3.org/1999/xlink" version="1.1" id="Your_Icon" x="0px" y="0px" width="100px" height="100px" viewBox="0 0 100 100" enable-background="new 0 0 100 100" xml:space="preserve">
<g>
	<path d="M17.583,43.431c-1.42,0-2.583,1.163-2.583,2.583v12.108c0,1.421,1.163,2.584,2.583,2.584h5.489   c1.42,0,3.531,0.673,4.69,1.495l13.062,9.278c1.159,0.823,2.106,0.333,2.106-1.087V34.39c0-1.42-0.965-1.934-2.143-1.142   l-12.989,8.741c-1.178,0.792-3.306,1.442-4.727,1.442H17.583z"/>
	<path d="M50.643,41.047c5.343,6.735,3.92,14.402-0.354,21.264c-1.544,2.48,2.366,4.748,3.905,2.28   c5.491-8.818,6.302-18.353-0.354-26.74C52.027,35.567,48.852,38.789,50.643,41.047z"/>
	<path d="M64.282,31.393c-1.897-2.22-5.081,0.993-3.198,3.196c7.426,8.692,7.378,26.309,0,35.013   c-1.872,2.209,1.309,5.424,3.198,3.196C73.336,62.116,73.394,42.06,64.282,31.393z"/>
	<path d="M73.538,22.889c-1.96-2.166-5.149,1.041-3.199,3.196c11.173,12.342,12.041,38.982,0,51.051   c-2.059,2.064,1.138,5.262,3.199,3.196C87.367,66.468,86.343,37.04,73.538,22.889z"/>
</g>
</svg>